# xmcd CD database file
#
# Track frame offsets:
#	150
#	15572
#	31433
#	48343
#	67414
#
# Disc length: 1145 seconds
#
# Revision: 0
# Processed by: cddbd v1.5.2PL0 Copyright (c) Steve Scherf et al.
# Submitted via: CDex 1.70beta2
#
DISCID=40047705
DTITLE=Taylor, Adrienne - Cdn. - Adrienne Taylor
DYEAR=1900
DGENRE=Country
TTITLE0=11:11 mix eq
TTITLE1=BREATH mix eq
TTITLE2=RITE mix eq
TTITLE3=SWING mix eq
TTITLE4=WAKE UP mix eq
EXTD=
EXTT0=
EXTT1=
EXTT2=
EXTT3=
EXTT4=
PLAYORDER=
